<svg width="763" height="515" viewBox="0 0 763 515" fill="currentcolor" xmlns="http://www.w3.org/2000/svg">
<path d="M755.001 501C747.384 511.412 683.763 518.177 679.632 510.589C675.5 503 679.632 415.034 679.632 415.034H678.103C653.646 462.053 597.089 510.589 514.545 510.589C490.088 510.589 459.517 503.005 430.474 487.838C383.088 462.053 341.816 408.967 340.288 307.346V225.442C340.288 220.892 340.288 216.342 340.288 211.792V201.174C334.173 132.921 302.073 79.8355 227.173 79.8355C167.559 79.8355 121.701 122.304 106.416 170.84C101.83 181.457 100.301 198.141 100.301 213.308C100.301 213.308 106.416 478.749 100.301 501.5C94.187 524.251 25.6731 513.589 8.58666 501.5C-8.49981 489.412 8.58666 151.122 8.58666 151.122C8.58666 99.553 7.05715 47.984 4 7.03215C4 7.03215 68.2376 -8.5 81 7.03215C93.7624 22.5643 88.0726 99.5531 88.0726 99.5531H89.6012C114.058 52.5343 172.144 7.03215 254.687 7.03215C279.145 7.03215 309.716 13.0991 338.759 28.2665C386.145 54.051 427.417 105.62 428.945 207.241V290.662C428.945 295.212 429.913 316.874 430.474 322.513C438.117 386.216 470.217 434.752 543.588 434.752C603.203 434.752 649.06 392.283 664.346 343.748C668.932 333.131 670.46 317.963 670.46 301.279V3.99868C670.46 3.99868 749.646 -3.48437 757.501 7.49997C765.355 18.4843 760.646 363.465 760.646 363.465C760.646 415.034 762.618 490.589 755.001 501Z" fill="white"/>
</svg>
